<?xml version="1.0" encoding="utf-8"?>
<!-- Generator: Adobe Illustrator 12.0.0, SVG Export Plug-In . SVG Version: 6.00 Build 51448)  -->
<!DOCTYPE svg PUBLIC "-//W3C//DTD SVG 1.1//EN" "http://www.w3.org/Graphics/SVG/1.1/DTD/svg11.dtd" [
	<!ENTITY ns_svg "http://www.w3.org/2000/svg">
	<!ENTITY ns_xlink "http://www.w3.org/1999/xlink">
]>
<svg  version="1.1" id="Layer_1" xmlns="&ns_svg;" xmlns:xlink="&ns_xlink;" width="200.988" height="186.516"
	 viewBox="0 0 200.988 186.516" overflow="visible" enable-background="new 0 0 200.988 186.516" xml:space="preserve">
<g>
	<path fill-rule="evenodd" clip-rule="evenodd" fill="#FFFFFF" d="M177.598,47.269c0-0.845,2.266-1.487,3.709-1.829
		c-1.01-1.688-2.531-1.816-2.909-1.872c-1.144-0.173-1.869-0.207-3.948,2.172c0.835-4.247-1.936-4.832-2.181-4.955
		c-0.218-0.111-1.376,0.03-1.972,0.708c0.769,0.847,2.112,1.438,2.369,2.883c0.256,1.447-0.425,2.213-1.104,3.831
		c-0.146,0.109-1.332,2.591-2.009,4.006c0.318-1.27,0.76-3.98,0.637-4.458c-1.383-5.536-7.196-6.624-7.113-10.408
		c0.05-2.164,0.423-2.208,0.651-3.442c0.525-2.797-1.383-4.844-1.383-4.844c-0.378,0.051-1.793,0.218-3.165,0.348l0.139-0.341
		c0.843-0.101,1.604-0.222,1.604-0.222c5.592-0.659,7.288-3.726,7.42-5.324c0.464-5.542-3.873-7.51-6.995-7.51
		c-3.412,0-3.786,1.47-4.055,2.424c-0.437,1.545,1.217,2.949,2.438,3.083c0.614,0.073,2.804,0.574,3.308-0.919
		c0.267-0.796,0.288-0.425,0.846,0.305c0.625,0.822,0.424,1.814-0.306,2.309c-0.95,0.63-2.157,0.769-4.003,0.769
		c-1.816,0-4.149-0.427-5.374-1.093c-1.231-0.655-3.122-2.456-3.026-4.441c0.094-1.987,2.459-3.021,3.311-3.591
		c-0.852-0.852-1.65-0.931-3.026-0.758c-2.548,0.329-3.218,2.269-3.312,3.026c-0.097,0.758,0.854,2.271,1.23,2.648
		c0.38,0.38,0.754,0.563,0.189,0.753c-0.221,0.079-0.635,0.273-1.316-0.384c-1.85-1.784-1.56-4.024-1.615-4.526
		c-0.09-0.854-0.151-4.438-0.283-5.108c-0.152-0.751-0.86-2.096-1.992-2.757c-0.082,0.371-0.656,3.611-1.22,3.794
		c-1.042-0.751-2.587-4.258-6.522-4.437c-0.949-0.042-1.139,0.184-1.517,0.657c1.231,0.664,3.405,4.16,3.312,4.729
		c-0.975-0.937-3.92-1.054-3.92-1.054c-0.634,0,1.607,1.756,2.081,2.134c0.745,0.602,2.458,1.891,3.351,2.416
		c1.007,0.596,2.93,2.083,2.93,2.083s0.189,0.563-0.094,0.847c0,0-0.139-0.145-1.516-0.847c-1.506-0.775-6.15-3.299-7.181-3.877
		c-0.875-0.493-2.704-1.368-5.803-1.368c-3.875,0-5.396,2.977-5.396,5.722c0,0.119,0.004,0.243,0.013,0.371l-0.275,0.147
		l-0.371-0.152c-0.303-6.4-0.627-8.764-7.076-11.767c-0.063,0.171,1.818,4.202,2.069,6.488c0.095,0.875,0.095,0.875,0.095,0.875
		c-0.27,0.239-0.875,0.124-1.148-0.301c-0.23-0.36-3.875-5.664-6.089-6.014c-0.173,0.171,0.937,1.281,1.345,2.213
		c0.273,0.63,0.488,1.778,0.098,2.051c-0.638,0.451-1.588,0.146-2.307-0.256c-0.373-0.207-2.783-1.432-2.593-5.916
		c0.11-0.352,0.448-1.628,2.103-1.912c-0.322-0.935-1.204-1.289-2.213-0.992c-1.098,0.329-2.086,1.376-2.653,1.472l-0.557-1.214
		c0,0-0.771-2.621-2.499-3.579L100.517,0l-0.38,0.085C98.408,1.05,97.58,3.606,97.58,3.606l-0.553,1.217
		c-0.574-0.096-1.56-1.144-2.659-1.466c-1.009-0.301-1.884,0.056-2.208,0.986c1.651,0.286,1.984,1.562,2.096,1.915
		c0.196,4.485-2.217,5.708-2.591,5.913c-0.719,0.401-1.663,0.707-2.309,0.256c-0.391-0.273-0.173-1.421,0.106-2.051
		C89.87,9.445,90.973,8.34,90.8,8.163c-2.215,0.35-5.86,5.653-6.086,6.014c-0.269,0.425-0.883,0.542-1.15,0.303c0,0,0,0,0.101-0.875
		c0.245-2.288,2.123-6.317,2.068-6.492c-6.166,2.868-6.733,5.16-7.034,10.933l-0.691,0.117c-0.124-2.635-1.678-5.367-5.386-5.367
		c-3.095,0-4.921,0.881-5.798,1.363c-1.037,0.581-5.681,3.105-7.185,3.882c-1.373,0.702-1.511,0.847-1.511,0.847
		c-0.284-0.284-0.094-0.847-0.094-0.847s1.923-1.489,2.926-2.081c0.898-0.527,2.604-1.816,3.357-2.418
		c0.467-0.38,2.708-2.136,2.072-2.136c0,0-2.942,0.117-3.914,1.054c-0.094-0.563,2.081-4.063,3.306-4.727
		C65.401,7.26,65.211,7.03,64.27,7.077c-3.941,0.177-5.487,3.683-6.521,4.441c-0.57-0.19-1.144-3.427-1.227-3.803
		c-1.133,0.666-1.842,2.008-1.991,2.761c-0.134,0.668-0.19,4.253-0.284,5.106c-0.051,0.504,0.232,2.743-1.611,4.526
		c-0.685,0.657-1.099,0.463-1.317,0.391c-0.569-0.196-0.188-0.38,0.19-0.757c0.374-0.38,1.321-1.891,1.227-2.648
		c-0.096-0.76-0.764-2.697-3.312-3.026c-1.372-0.175-2.168-0.092-3.021,0.755c0.854,0.57,3.211,1.607,3.308,3.598
		c0.094,1.985-1.797,3.779-3.021,4.441c-1.234,0.66-3.558,1.088-5.382,1.088c-1.844,0-3.054-0.139-3.995-0.771
		c-0.739-0.497-0.939-1.487-0.308-2.307c0.559-0.73,0.572-1.104,0.841-0.307c0.508,1.494,2.693,0.992,3.312,0.919
		c1.214-0.134,2.871-1.539,2.437-3.082c-0.273-0.954-0.642-2.42-4.059-2.42c-3.122,0-7.461,1.968-6.998,7.503
		c0.134,1.604,1.835,4.665,7.422,5.324c0,0,0.845,0.132,1.733,0.235l0.077,0.333c-1.394-0.128-2.849-0.297-3.227-0.35
		c0,0-1.912,2.044-1.389,4.844c0.235,1.231,0.604,1.276,0.653,3.444c0.089,3.779-5.732,4.868-7.115,10.403
		c-0.119,0.486,0.32,3.188,0.643,4.464c-0.674-1.421-1.867-3.901-2.006-4.014c-0.681-1.615-1.362-2.379-1.112-3.824
		c0.258-1.449,1.607-2.04,2.369-2.887c-0.595-0.679-1.754-0.813-1.965-0.708c-0.252,0.124-3.016,0.708-2.188,4.958
		c-2.079-2.379-2.802-2.348-3.944-2.175c-0.38,0.062-1.901,0.184-2.911,1.874c1.447,0.339,3.707,0.982,3.707,1.827
		c-0.595,0.597-2.665,2.298-2.804,3.491c-0.224,1.888,0.681,2.426,1.187,2.638c0.424-2.382,1.511-3.423,2.638-3.573
		c1.016-0.136,2.234-0.153,3.912,0.766c1.874,1.022,3.574,2.606,3.574,2.606s-0.004-0.023-0.015-0.045
		c0.64,0.719,2.307,1.917,4.223,1.761c2.271-0.19,3.463-2.192,3.463-3.233s-1.014-1.777-1.583-1.874
		c-0.563-0.094-1.404-0.073-1.961,0.685c-0.38,0.508-0.881,0.774-1.25,0.303c-0.591-0.758-0.115-1.756,0.301-2.192
		c0.48-0.503,1.361-0.95,2.554-0.95c0.854,0,5.128,1.227,7.019,8.415c1.889,7.179,1.201,10.491,0.924,12.292
		c-0.284,1.794-0.947,3.686-1.893,4.816c0,0-0.19,0-0.286-0.847c0.758-1.984,0.947-3.5,0.096-6.142
		c-0.85-2.648-3.502-4.979-3.782-6.152c-0.229-0.412,0.324-3.739,0.324-3.739s-3.926,0.228-4.104,4.119
		c-0.111,2.437-2.881-3.897-7.951-0.792c-2.162,1.328-2.072,3.063-1.882,3.82c1.223-0.45,1.214-0.557,2.648-0.664
		c0.945-0.072,4.917,0.854,5.011,2.838c-2.081,0.38-3.12,1.417-3.686,2.456c-0.57,1.04-0.474,1.891,0.279,3.118
		c0.664-1.321,2.203-2.064,4.443-2.269c4.071,0,6.199,3.579,6.244,6.338c0.027,2.091-0.167,3.63-1.02,5.017
		c-0.474,0.775-1.556,2.728-5.459,2.409c-1.048-0.19-1.737-0.702-1.951-0.926c-1.249-1.315-0.425-3.312-0.425-3.312
		c0.107,1.656,2.448,2.219,3.464,1.846c0.74-0.269,2.038-0.73,1.85-3c-0.19-2.266-2.966-4.375-5.975-2.937
		c-3.707,2.064-3.491,7.79-3.028,10.096c0.429,2.134,2.727,9.277,2.537,11.767c-0.512,6.923-5.318,5.02-5.659,4.797
		c-0.318-0.204-0.892-0.623-1.097-1.024c-0.224-0.528-0.341-0.87-0.296-1.536c0.073-0.999,1.05-1.554,0.864-1.033
		c-0.333,0.956,0.553,1.784,0.843,1.861c1.003,0.299,2.732-0.171,2.732-1.869c0-1.708-1.366-2.894-3.312-2.693
		c-3.417,0.35-3.665,3.948-3.613,4.98c0.032,0.615,0.318,1.537,0.585,1.903l0.013-0.008c0.828,1.365,2.535,2.748,4.164,3.039
		c4.208,0.742,6.477-1.204,7.208-2.007c1.046-0.947,1.899-2.979,1.899-2.979s1.756,0.563,2.928,3.585
		c0.831,2.817-0.262,4.985-1.299,6.377c-2.145-1.647-1.878-4.645-1.878-4.645s-5.062,4.755-3.914,8.869
		c0.088,0.324,0.803,3.27,4.83,4.114c0.664-0.281,1.225-1.297,1.794-1.349c1.225-0.094,4.084,4.712,4.731,5.694
		c0.67,1.041,2.001,2.979,2.001,3.926c0,0.948-3.98-1.903-5.54-3.465c-1.562-1.554-1.099-3.227-2.426-3.227
		c-0.284,1.229-0.062,2.21-0.344,2.305c-0.286,0.094-3.058-2.774-4.951-2.391c-1.891,0.376-4.332,3.158-4.048,5.054
		c0.619,0.443,3.579-1.238,4.336-1.332c0.67-0.085,1.521,0.128,1.199,0.974c-0.751,0.384-3.284,3.363-2.535,3.815
		c0.745,0.443,0.975-1.127,6.46-1.042c3.389,0.257,4.499,1.853,4.46,3.073c-0.023,0.769-0.162,1.477-0.613,1.622
		c-0.815,0.265-1.912,0.29-4.946-0.308c-2.597-0.512-2.642-1.075-2.535,0.052c0.055,0.64,2.251,1.451,2.251,2.483
		c0,1.042-5.563,2.391-1.387,8.075c2.155,2.313,6.777,2.433,7.921,1.853c0.284-0.563-3.295-2.271-2.843-4.541
		c0.077-0.384,0.847-2.151,2.999-2.305c1.304-0.094,0.156,2.544,2.928,2.766c0-3.517,1.806-3.363,1.806-3.363s0.981-0.18,3.389,0.7
		c1.778,0.64,3.122,0.938,3.686,2.177c0.567,1.221,0.094,0.657-0.753,0.657c-0.852,0-1.839-0.666-2.975-0.479
		c-1.133,0.188-2.254,1.442-2.54,2.774c-0.282,1.323-0.495,4.234,0.922,4.618c0,0,0.695-2.774,4.616-4.388
		c1.144-0.47,2.821-0.436,4.616,0.222c1.799,0.666,8.312,3.808,14.834,3.808c6.521,0,10.883-4.814,11.724-6.615
		c0.229-0.504,0.401-0.982,0.553-1.451c0.07,0.665,0.572,1.75,1.304,2.313c0.847,0.657,2.753,0.325,1.906,0.615
		c-0.854,0.281-4.212,1.63-4.212,2.39c0,0.751,3.643-0.503,3.929-0.222c0.284,0.29,0.612,0.35-0.241,0.938
		c-0.83,0.572-6.287,1.443-6.231,2.74c0.056,1.238,0.263,4.481,0.926,4.388c2.072-4.157,10.085-6.513,8.472-5.412
		c-0.412,0.436-3.701,2.937-2.691,4.474c0.373,0.571,2.497,4.694,2.876,4.797c0.38,0.094-0.581-7.555,4.827-9.364
		c1.979-0.674-5.914,5.378,4.5,13.248c0.143,0.052,0,0,0,0l0.143,0.052l0.603-0.018c10.409-7.87,2.514-13.922,4.494-13.257
		c5.412,1.818,4.454,9.467,4.827,9.373c0.38-0.094,2.504-4.233,2.877-4.797c1.014-1.537-2.281-4.047-2.693-4.481
		c-1.605-1.102,6.4,1.263,8.48,5.42c0.657,0.094,0.864-3.149,0.918-4.388c0.062-1.297-5.401-2.168-6.231-2.74
		c-0.847-0.589-0.519-0.657-0.233-0.938c0.277-0.282,3.93,0.973,3.93,0.213c0-0.751-3.367-2.108-4.215-2.39
		c-0.854-0.281,1.055,0.051,1.905-0.606c0.726-0.563,1.233-1.655,1.306-2.313c0.146,0.469,0.318,0.956,0.551,1.442
		c0.837,1.801,5.197,6.624,11.721,6.624c6.521,0,13.039-3.142,14.834-3.808c1.794-0.657,3.479-0.691,4.615-0.222
		c3.927,1.613,4.615,4.379,4.615,4.379c1.418-0.375,1.211-3.286,0.927-4.609c-0.284-1.332-1.404-2.586-2.544-2.774
		c-1.131-0.188-2.123,0.479-2.971,0.479c-0.854,0-1.327,0.563-0.758-0.657c0.568-1.238,1.906-1.537,3.686-2.177
		c2.412-0.88,3.389-0.7,3.389-0.7s1.813-0.153,1.813,3.363c2.77-0.23,1.622-2.868,2.922-2.774c2.157,0.162,2.926,1.93,3,2.313
		c0.457,2.271-3.129,3.969-2.845,4.532c1.142,0.589,5.771,0.47,7.922-1.844c4.181-5.685-1.384-7.033-1.384-8.075
		c0-1.032,2.192-1.844,2.254-2.483c0.099-1.127,0.056-0.563-2.543-0.052c-3.033,0.598-4.123,0.572-4.945,0.308
		c-0.443-0.146-0.591-0.854-0.612-1.622c-0.04-1.221,1.075-2.816,4.458-3.073c5.486-0.085,5.722,1.485,6.469,1.033
		c0.746-0.443-1.784-3.423-2.542-3.807c-0.318-0.854,0.529-1.059,1.203-0.982c0.754,0.103,3.714,1.784,4.337,1.332
		c0.283-1.895-2.162-4.678-4.053-5.054c-1.889-0.375-4.665,2.493-4.949,2.399c-0.285-0.095-0.062-1.076-0.346-2.305
		c-1.322,0-0.866,1.664-2.424,3.227c-1.558,1.562-5.535,4.404-5.535,3.465c0-0.947,1.324-2.885,1.992-3.926
		c0.653-0.982,3.507-5.788,4.74-5.694c0.561,0.052,1.127,1.067,1.791,1.349c4.028-0.854,4.737-3.79,4.831-4.114
		c1.144-4.123-3.919-8.869-3.919-8.869s0.273,2.997-1.873,4.644c-1.041-1.399-2.13-3.559-1.304-6.376
		c1.169-3.021,2.926-3.585,2.926-3.585s0.854,2.022,1.901,2.971c0.729,0.811,3.005,2.748,7.209,2.014
		c1.628-0.29,3.34-1.673,4.163-3.038h0.011c0.269-0.358,0.559-1.289,0.585-1.896c0.058-1.032-0.194-4.631-3.611-4.982
		c-1.946-0.201-3.312,0.987-3.312,2.687c0,1.707,1.734,2.168,2.733,1.878c0.295-0.085,1.174-0.905,0.841-1.861
		c-0.184-0.529,0.792,0.034,0.864,1.033c0.049,0.666-0.072,0.999-0.29,1.536c-0.207,0.401-0.781,0.82-1.097,1.024
		c-0.344,0.223-5.149,2.117-5.666-4.797c-0.19-2.493,2.112-9.64,2.537-11.769c0.461-2.307,0.681-8.033-3.028-10.096
		c-3.004-1.442-5.781,0.67-5.971,2.94c-0.188,2.267,1.105,2.729,1.846,2.999c1.014,0.367,3.357-0.19,3.462-1.846
		c0,0,0.823,1.996-0.423,3.31c-0.207,0.224-0.902,0.732-1.953,0.926c-3.896,0.318-4.979-1.633-5.456-2.407
		c-0.854-1.394-1.048-2.926-1.014-5.023c0.038-2.753,2.173-6.332,6.237-6.332c2.245,0.205,3.779,0.947,4.443,2.268
		c0.758-1.225,0.854-2.078,0.284-3.115c-0.568-1.044-1.605-2.079-3.684-2.461c0.087-1.984,4.057-2.909,5.004-2.836
		c1.433,0.104,1.428,0.211,2.648,0.662c0.188-0.758,0.284-2.495-1.878-3.816c-5.074-3.107-7.838,3.227-7.951,0.79
		c-0.184-3.891-4.107-4.121-4.107-4.121s0.55,3.331,0.324,3.743c-0.28,1.169-2.928,3.5-3.782,6.142
		c-0.854,2.648-0.661,4.166,0.097,6.15c-0.097,0.847-0.284,0.847-0.284,0.847c-0.95-1.133-1.606-3.022-1.891-4.823
		c-0.284-1.795-0.972-5.107,0.919-12.292c1.892-7.181,6.166-8.408,7.02-8.408c1.199,0,2.074,0.448,2.553,0.943
		c0.42,0.439,0.894,1.438,0.303,2.198c-0.365,0.472-0.871,0.205-1.244-0.309c-0.557-0.751-1.398-0.775-1.968-0.679
		c-0.567,0.094-1.583,0.83-1.583,1.872c0,1.039,1.192,3.039,3.461,3.229c1.918,0.163,3.585-1.037,4.231-1.754
		c-0.011,0.021-0.023,0.042-0.023,0.042s1.701-1.583,3.575-2.607c1.677-0.916,2.899-0.898,3.913-0.764
		c1.125,0.145,2.213,1.193,2.638,3.574c0.506-0.213,1.417-0.749,1.191-2.637C180.27,49.565,178.197,47.864,177.598,47.269
		L177.598,47.269z"/>
	<path fill-rule="evenodd" clip-rule="evenodd" fill="#E03A3E" d="M100.474,15.378c0,0,1.087,1.912,3.767,3.466
		c1.878,1.092,5.978,2.057,5.978,2.057c2.618,0.674,7.42,1.042,10.653,3.98c2.209,2.006,4.014,2.977,7.229,2.838
		c3.088-0.124,4.231-1.583,4.654-2.07c1.673-1.927,1.372-3.728,1.372-3.728c1.377,0.463,4.699,2.219,5.308,2.51
		c1.221,0.58,10.103,5.612,11.901,5.809c-0.93,1.249-1.646,1.417-2.252,1.417c-1.286,0-3.924-0.521-4.052,0.384
		c0,0-0.452,3.282,1.415,4.699c0,0-2.76,5.346-0.122,8.624c2.642-1.027,3.016-1.545,3.016-1.545
		c-0.257,1.221,0.034,2.653,1.093,2.51c0.501-0.068,1.099-0.034,1.482,0.205c0,0-2.977,1.594-4.81,7.531
		c-1.093,3.541-1.161,7.851-1.161,7.851h-91.11c0,0,0.213-3.675-1.08-7.693c-1.885-5.854-4.729-7.654-4.729-7.654
		c0.648-0.256,1.016-0.301,1.519-0.239c1.644,0.205,1.091-1.929,0.952-2.49l3.122,1.56c2.576-4.18-0.224-8.641-0.224-8.641
		c1.829-1.144,1.523-4.684,1.523-4.684c-0.519-0.653-2.478-0.356-4.166-0.401c-0.567-0.015-1.37-0.246-2.147-1.407
		c2.832-0.896,11.005-5.36,11.566-5.736c0.566-0.372,5.538-2.591,5.538-2.591c-0.09,0.584,0.401,2.396,1.338,3.711
		c0.975,1.368,2.977,2.194,5.213,2.136c3.216-0.083,4.609-0.931,7.273-3.282c3.273-2.894,9.646-3.357,10.296-3.73
		c0,0,4.26-0.837,5.922-1.929C99.257,17.198,100.474,15.378,100.474,15.378L100.474,15.378z"/>
	<path fill-rule="evenodd" clip-rule="evenodd" fill="#EEB310" d="M176.741,99.977c-0.207,0.41-0.78,0.819-1.093,1.024
		c-0.346,0.222-5.151,2.125-5.67-4.798c-0.184-2.49,2.113-9.63,2.542-11.767c0.463-2.313,0.681-8.039-3.028-10.096
		c-3.009-1.445-5.785,0.668-5.975,2.937c-0.19,2.271,1.105,2.734,1.846,3c1.02,0.367,3.356-0.19,3.463-1.846
		c0,0,0.824,1.995-0.42,3.312c-0.212,0.224-0.903,0.73-1.953,0.924c-3.9,0.318-4.982-1.632-5.461-2.412
		c-0.854-1.389-1.047-2.921-1.016-5.019c0.041-2.757,2.175-6.332,6.24-6.332c2.245,0.201,3.783,0.941,4.44,2.269
		c0.76-1.231,0.854-2.081,0.286-3.122c-0.563-1.038-1.606-2.079-3.686-2.458c0.094-1.985,4.063-2.911,5.011-2.838
		c1.435,0.113,1.428,0.213,2.65,0.664c0.188-0.757,0.277-2.49-1.887-3.82c-5.065-3.105-7.836,3.229-7.948,0.792
		c-0.184-3.891-4.102-4.119-4.102-4.119c-0.007,0,0.546,3.327,0.315,3.741c-0.278,1.171-2.931,3.502-3.78,6.15
		c-0.851,2.646-0.66,4.157,0.097,6.142c-0.097,0.854-0.286,0.854-0.286,0.854c-0.945-1.137-1.604-3.028-1.889-4.823
		c-0.283-1.795-0.971-5.107,0.92-12.298c1.895-7.186,6.172-8.406,7.02-8.406c1.199,0,2.078,0.446,2.552,0.941
		c0.425,0.441,0.892,1.44,0.308,2.198c-0.369,0.472-0.875,0.207-1.249-0.307c-0.557-0.753-1.399-0.774-1.968-0.679
		c-0.563,0.094-1.585,0.83-1.585,1.872c0,1.037,1.192,3.039,3.464,3.229c2.268,0.19,4.203-1.528,4.487-2.098
		c0.284-0.563,0.971-4.471,0.826-5.056c-1.388-5.54-7.204-6.622-7.115-10.408c0.045-2.168,0.419-2.208,0.646-3.446
		c0.525-2.798-1.383-4.842-1.383-4.842c-0.663,0.094-4.526,0.529-5.757,0.529c0,0-0.992,2.307-4.277,3.739
		c-2.129,0.933-3.064,0.836-4.387,0.459c-0.095,0.655,0.195,1.041,0.854,1.387c1.615,0.854,1.333,1.451,1.333,1.735
		c0,0.277-2.375,1.758-2.375,5.356c0.663-0.19,3.801-3.378,6.069-3.285c0.57,0.476-0.194,1.078-0.491,1.767
		c-0.294,0.687-0.757,1.897-0.757,3.028c1.043-0.568,2.364-1.417,3.686-1.417c1.326,0,3.312,1.227,3.312,1.891
		c-1.511,1.321-7.661,4.347-9.269,10.498c-1.604,6.144-0.945,14.466,0.477,18.436c1.414,3.969,4.064,9.36,9.644,11.438
		c1.939,0.659,3.218,0.452,3.591,0.38c1.221-0.239,2.553-1.042,2.933-1.225c0.284,0.372-0.369,2.01-1.496,3.98
		c-0.729,1.274-2.019,3.351-5.288,3.69c-2.313,0.051-3.484-2.864-1.59-3.485c-0.015,0.875,0.201,1.193,0.931,1.583
		c0.618,0.329,1.378-0.083,1.655-0.557c0.287-0.467,0.273-1.767-0.404-2.348c-0.536-0.452-0.898-0.879-2.41-0.785
		c-1.515,0.096-3.73,3.005-1.984,5.758c0.391,0.614,1.37,2.164,3.586,2.347c1.604,0.134,4.297-0.916,5.362-1.856
		c1.026-0.898,1.026-1.387,2.206-1.428c0.66,0.753-2.186,3.116-2.764,3.478c-2.281,1.42-3.267,1.635-5.621,2.31
		c-2.575,0.738-2.775,1.959-3.527,3.76c1.131,0,1.521,0.094,2.459,0.29c0.857,0.171,1.332,0.675,1.414,0.939
		c0.785,2.552-0.166,5.915-0.435,7.819c0.364,0.87,4.048,2.287,5.075,0.478c-1.068-1.392-2.241-3.603-1.391-6.504
		c1.172-3.022,2.926-3.586,2.926-3.586s0.854,2.023,1.902,2.979c0.731,0.803,3,2.749,7.202,2.006
		c1.718-0.299,3.529-1.818,4.304-3.252L176.741,99.977L176.741,99.977z"/>
	<path fill-rule="evenodd" clip-rule="evenodd" fill="#EEB310" d="M178.938,101.59c0.267-0.367,0.551-1.298,0.585-1.903
		c0.051-1.033-0.194-4.631-3.611-4.981c-1.946-0.2-3.312,0.986-3.312,2.693c0,1.699,1.729,2.168,2.731,1.869
		c0.29-0.085,1.176-0.904,0.841-1.852c-0.184-0.529,0.792,0.034,0.864,1.032c0.045,0.657-0.072,0.99-0.295,1.528L178.938,101.59
		L178.938,101.59z"/>
	<path fill-rule="evenodd" clip-rule="evenodd" fill="#EEB310" d="M169.108,53.174c0,0,2.269-4.834,2.469-4.99
		c0.681-1.617,1.361-2.381,1.109-3.831c-0.256-1.445-1.604-2.036-2.368-2.887c0.598-0.681,1.75-0.815,1.968-0.708
		c0.245,0.122,3.017,0.708,2.185,4.958c2.081-2.375,2.805-2.343,3.948-2.17c0.38,0.058,1.901,0.179,2.911,1.867
		c-1.451,0.341-3.707,0.982-3.707,1.835c0.596,0.595,2.667,2.296,2.811,3.489c0.216,1.889-0.688,2.427-1.193,2.638
		c-0.425-2.379-1.513-3.429-2.638-3.572c-1.016-0.134-2.236-0.154-3.916,0.762C170.815,51.59,169.108,53.174,169.108,53.174
		L169.108,53.174z"/>
	<path fill-rule="evenodd" clip-rule="evenodd" fill="#0668B3" d="M112.697,88.389h39.8c-0.41,4.136,1.905,6.109,2.876,6.552
		c0,0-3.018,2.483-2.849,7.725c0,0,3.237-0.555,3.829,0.367c0.652,1.024-0.391,5.361-0.875,6.727
		c-1.467,0-42.803,0.034-42.803,0.034v24.559c0.004,0.537-3.484,0.965-5.591,1.707c-1.383,0.495-4.366,1.989-6.658,4.797
		c-2.535-2.825-4.616-4.199-6.069-4.797c-1.908-0.76-6.489-1.178-6.468-1.707c0-1.699,0-24.602,0-24.602H45.768
		c-0.235-0.665-0.698-2.638-0.881-3.798c-0.241-1.605-0.041-2.715-0.041-2.715c-0.056-0.598,1.667-1.05,3.619-0.598
		c0.322-5.36-2.845-7.699-2.845-7.699c1.801-1.012,3.167-3.223,2.877-6.547c1.372,0,39.419,0,39.419,0V64.729h24.78V88.389
		L112.697,88.389z"/>
	<polygon fill-rule="evenodd" clip-rule="evenodd" fill="#FAE3B6" points="95.087,74.313 91.727,76.554 95.053,78.844 
		94.245,82.826 98.208,82.077 100.434,85.468 102.715,82.117 106.666,82.933 105.935,78.844 109.305,76.603 105.965,74.407 
		106.816,70.368 102.809,71.174 100.427,67.852 98.301,71.136 94.351,70.32 95.087,74.313 	"/>
	<path fill="#FAE3B6" d="M119.098,92.788h3.461v1.385h-3.461V92.788L119.098,92.788z M119.098,96.225h3.461v1.388h-3.461V96.225
		L119.098,96.225z M119.098,99.729h3.461v1.383h-3.461V99.729L119.098,99.729z M119.098,103.187h3.461v1.391h-3.461V103.187
		L119.098,103.187z"/>
	<path fill-rule="evenodd" clip-rule="evenodd" fill="#FAE3B6" d="M85.866,108.53h13.709v-1.16c0,0-1.287-1.195-6.618-1.195
		C89.968,106.499,87.17,107.352,85.866,108.53L85.866,108.53z"/>
	<path fill-rule="evenodd" clip-rule="evenodd" fill="#FAE3B6" d="M114.982,108.53h-13.707v-1.16c0,0,1.287-1.195,6.616-1.195
		C110.881,106.499,113.68,107.352,114.982,108.53L114.982,108.53z"/>
	<path fill-rule="evenodd" clip-rule="evenodd" fill="#FFFFFF" d="M86.261,106.191V88.144c0,0,3.401-0.809,4.868-0.798
		c1.805,0.019,6.677,0.536,8.457,1.963c0,1.238,0,16.19,0,16.19s-3.022-0.845-5.615-0.845
		C90.008,104.655,86.261,106.191,86.261,106.191L86.261,106.191z"/>
	<path fill-rule="evenodd" clip-rule="evenodd" fill="#FFFFFF" d="M82.911,107.838v-17.71c0,0,0.92-0.881,1.752-1.204
		c0,0.892,0,17.753,0,17.753S83.068,107.429,82.911,107.838L82.911,107.838z"/>
	<path fill="#0668B3" d="M90.405,100.814c2.84-1.024,6.169,0.025,6.178,0.034l-0.263,0.793c-0.006,0-3.052-0.964-5.629-0.034
		L90.405,100.814L90.405,100.814z M90.403,97.664c2.862-0.888,6.157,0.205,6.165,0.205l-0.262,0.803
		c-0.009-0.009-3.054-1.008-5.655-0.205L90.403,97.664L90.403,97.664z M90.452,94.749c2.525-0.6,6.108,0.38,6.116,0.382
		l-0.262,0.799c-0.009,0-3.338-0.912-5.662-0.363L90.452,94.749L90.452,94.749z M90.452,91.738c2.54-0.602,6.123,0.572,6.131,0.572
		l-0.263,0.8c-0.006-0.002-3.365-1.099-5.676-0.553L90.452,91.738L90.452,91.738z"/>
	<path fill-rule="evenodd" clip-rule="evenodd" fill="#EEB310" d="M13.617,125.141L2.93,130.63c-2.977-0.589-4.17-4.823-1.255-7.512
		c0,0,5.002-3.167,11.24-5.643c7.873-3.124,16.424,15.04,11.076,20.342c0,0-0.346,0.435-2.685,1.365
		c-1.12,0.452-1.739,0.709-1.739,0.709c-2.191-1.443-2.979-5.165-2.029-6.386c-0.54,0.248-1.552,0.743-1.808,1.853
		c-1.404,6.138,6.532,14.751,18.726,15.263c11.507,0.486,20.476-0.931,30.327,2.143c9.851,3.082,20.683,17.926,35.713,17.926
		l0.005,15.826c-22.205,0-31.883-15.938-42.28-19.445c-9.64-3.252-22.109,0.256-33.906-2.859
		C9.458,160.285,1.532,147.506,3.341,138.85l12.583-6.709c3.034-1.528,3.696-0.751,3.713,0.495c0.017,1.314,0.056,4.396,2.454,3.747
		c-1.549-1.784,0.122-4.678-0.659-6.24c-0.672-1.349-2.546-1.707-4.928-0.733l-7.272,3.722c-0.196-1.102-0.715-1.946-1.496-2.433
		l10.173-5.43c-1.265-0.128-5.685-2.202-4.08-5.454C11.02,121.625,11.705,123.87,13.617,125.141L13.617,125.141z"/>
	<path fill-rule="evenodd" clip-rule="evenodd" fill="#EEB310" d="M187.373,125.141l10.681,5.489
		c2.981-0.589,4.175-4.823,1.26-7.512c0,0-5-3.167-11.24-5.643c-7.87-3.124-16.424,15.04-11.075,20.342c0,0,0.346,0.435,2.687,1.365
		c1.12,0.452,1.741,0.709,1.741,0.709c2.189-1.443,2.973-5.165,2.027-6.386c0.542,0.248,1.549,0.743,1.806,1.853
		c1.406,6.138-6.532,14.751-18.724,15.263c-11.51,0.486-20.479-0.931-30.327,2.143c-9.853,3.082-20.683,17.926-35.713,17.926
		l-0.007,15.826c22.205,0,31.883-15.938,42.279-19.445c9.64-3.252,22.109,0.256,33.905-2.859
		c14.857-3.927,22.785-16.705,20.974-25.361l-12.582-6.709c-3.035-1.528-3.696-0.751-3.714,0.495
		c-0.017,1.314-0.055,4.396-2.454,3.747c1.552-1.784-0.121-4.678,0.66-6.24c0.674-1.349,2.548-1.707,4.927-0.733l7.275,3.722
		c0.196-1.102,0.715-1.946,1.494-2.433l-10.173-5.43c1.265-0.128,5.687-2.202,4.08-5.454
		C189.971,121.625,189.283,123.87,187.373,125.141L187.373,125.141z"/>
	<path fill-rule="evenodd" clip-rule="evenodd" fill="#FFFFFF" d="M7.324,145.816l2.247-1.357l0.173,0.29
		c-0.581,0.572-0.911,1.136-0.999,1.682c-0.089,0.547,0.011,1.059,0.291,1.528c0.277,0.452,0.578,0.717,0.902,0.776
		c0.329,0.068,0.608,0.026,0.841-0.11c0.273-0.162,0.436-0.401,0.485-0.7c0.03-0.205,0.013-0.563-0.049-1.075l-0.1-0.828
		c-0.101-0.819-0.09-1.443,0.041-1.878c0.122-0.436,0.395-0.785,0.807-1.033c0.446-0.265,0.964-0.342,1.562-0.222
		c0.591,0.119,1.107,0.537,1.543,1.263c0.224,0.367,0.391,0.752,0.497,1.161c0.104,0.401,0.173,0.632,0.207,0.683
		c0.06,0.103,0.139,0.163,0.222,0.171c0.083,0.009,0.179,0,0.29-0.034l0.177,0.299l-1.974,1.187l-0.167-0.272
		c0.374-0.41,0.625-0.88,0.753-1.417c0.128-0.538,0.049-1.051-0.246-1.537c-0.203-0.333-0.446-0.546-0.736-0.648
		c-0.284-0.094-0.546-0.077-0.785,0.068c-0.286,0.179-0.446,0.401-0.476,0.674c-0.032,0.265,0,0.803,0.096,1.597l0.118,0.965
		c0.055,0.418,0.049,0.785-0.017,1.092c-0.118,0.581-0.423,1.017-0.914,1.315c-0.459,0.272-1.009,0.341-1.656,0.179
		c-0.648-0.145-1.233-0.666-1.767-1.545c-0.118-0.205-0.224-0.418-0.318-0.641c-0.09-0.23-0.163-0.469-0.211-0.708l-0.051-0.239
		c-0.017-0.051-0.034-0.103-0.049-0.153c-0.023-0.043-0.041-0.086-0.058-0.111c-0.06-0.11-0.132-0.162-0.211-0.171
		c-0.077,0-0.179,0.009-0.297,0.043L7.324,145.816L7.324,145.816z"/>
	<path fill-rule="evenodd" clip-rule="evenodd" fill="#FFFFFF" d="M12.407,152.713l0.179-0.205c0.25,0.222,0.45,0.35,0.602,0.401
		c0.25,0.076,0.48,0,0.691-0.239l3.44-3.799c0.205-0.239,0.269-0.47,0.173-0.7c-0.062-0.136-0.211-0.324-0.463-0.571l0.179-0.205
		l3.03,2.74l-0.177,0.205c-0.284-0.239-0.489-0.376-0.636-0.419c-0.239-0.076-0.468,0-0.681,0.239l-3.438,3.799
		c-0.201,0.222-0.263,0.427-0.196,0.632c0.068,0.196,0.241,0.409,0.505,0.657l-0.177,0.196L12.407,152.713L12.407,152.713z"/>
	<path fill-rule="evenodd" clip-rule="evenodd" fill="#FFFFFF" d="M23.517,152.815c0.092-0.196,0.175-0.315,0.265-0.358
		c0.126-0.076,0.333-0.051,0.61,0.068c0.843,0.367,1.272,1.024,1.289,1.972c0.006,0.59-0.146,1.229-0.442,1.912
		c-0.5,1.161-1.04,1.853-1.626,2.083c-0.585,0.23-1.193,0.205-1.829-0.068c-0.232-0.103-0.369-0.213-0.401-0.333
		c-0.032-0.119-0.01-0.281,0.066-0.486L23.517,152.815L23.517,152.815z M21.816,158.833c1.227,0.529,2.349,0.605,3.359,0.222
		c0.9-0.333,1.543-0.938,1.923-1.818c0.422-0.981,0.446-1.895,0.066-2.757c-0.418-0.939-1.289-1.698-2.61-2.262l-3.278-1.426
		l-0.111,0.247c0.273,0.146,0.457,0.273,0.546,0.376c0.156,0.188,0.186,0.401,0.073,0.657l-2.074,4.789
		c-0.111,0.265-0.294,0.401-0.546,0.401c-0.145,0-0.35-0.052-0.629-0.146l-0.107,0.247L21.816,158.833L21.816,158.833z"/>
	<path fill-rule="evenodd" clip-rule="evenodd" fill="#FFFFFF" d="M34.541,161.54l-6.78-0.862l0.038-0.265
		c0.329,0.025,0.568,0.017,0.719-0.034c0.229-0.077,0.363-0.273,0.401-0.572l0.646-5.087c0.041-0.308-0.045-0.529-0.256-0.666
		c-0.12-0.085-0.346-0.153-0.681-0.214l0.034-0.265l6.684,0.846l-0.273,2.117l-0.279-0.034c-0.06-0.691-0.254-1.187-0.574-1.485
		c-0.322-0.291-0.947-0.504-1.884-0.615c-0.35-0.051-0.578-0.042-0.685,0.018c-0.106,0.051-0.173,0.179-0.194,0.375l-0.313,2.434
		c0.664,0.085,1.12,0.034,1.389-0.162c0.26-0.188,0.489-0.581,0.689-1.153l0.296,0.034l-0.452,3.552l-0.297-0.043
		c-0.002-0.606-0.119-1.05-0.343-1.323c-0.224-0.281-0.662-0.452-1.328-0.538l-0.324,2.544c-0.026,0.223,0.017,0.385,0.137,0.479
		c0.115,0.094,0.367,0.162,0.762,0.213c0.736,0.094,1.361,0.052,1.863-0.153s0.976-0.641,1.428-1.306l0.322,0.042L34.541,161.54
		L34.541,161.54z"/>
	<path fill-rule="evenodd" clip-rule="evenodd" fill="#FFFFFF" d="M39.791,155.214c0-0.171,0.051-0.282,0.151-0.351
		c0.094-0.068,0.301-0.103,0.613-0.103c0.574,0.009,0.964,0.214,1.182,0.624c0.122,0.238,0.179,0.555,0.179,0.973
		c-0.013,0.666-0.179,1.093-0.51,1.271c-0.333,0.18-0.879,0.273-1.644,0.273L39.791,155.214L39.791,155.214z M40.751,161.565
		l0.004-0.265c-0.412-0.017-0.688-0.094-0.82-0.222c-0.141-0.137-0.2-0.385-0.2-0.76l0.023-2.074l0.305,0.008l2.392,3.338
		l2.39,0.025l0.006-0.256c-0.104-0.009-0.194-0.025-0.267-0.051c-0.073-0.025-0.141-0.086-0.207-0.171l-2.32-3.039
		c0.403-0.068,0.781-0.222,1.144-0.461c0.467-0.324,0.708-0.776,0.712-1.357c0.011-0.776-0.45-1.323-1.387-1.63
		c-0.48-0.154-1.109-0.23-1.891-0.248l-3.762-0.034v0.273c0.395,0.034,0.653,0.094,0.768,0.18c0.167,0.119,0.252,0.384,0.246,0.802
		l-0.049,4.678c0,0.393-0.077,0.649-0.224,0.769c-0.146,0.111-0.418,0.171-0.813,0.188v0.273L40.751,161.565L40.751,161.565z"/>
	<path fill-rule="evenodd" clip-rule="evenodd" fill="#FFFFFF" d="M52.84,161.804l-6.829-0.18l0.006-0.265
		c0.341,0,0.574-0.034,0.719-0.11c0.218-0.103,0.335-0.308,0.341-0.606l0.126-5.13c0.013-0.308-0.094-0.521-0.316-0.632
		c-0.128-0.068-0.363-0.12-0.704-0.146l0.011-0.265l6.737,0.171l-0.058,2.134l-0.284-0.008c-0.134-0.684-0.374-1.161-0.726-1.417
		c-0.346-0.265-0.992-0.401-1.929-0.427c-0.363-0.009-0.584,0.017-0.685,0.085c-0.1,0.06-0.149,0.196-0.156,0.393l-0.062,2.45
		c0.664,0.025,1.123-0.077,1.361-0.291c0.239-0.222,0.433-0.631,0.574-1.229l0.294,0.008l-0.087,3.577l-0.303-0.009
		c-0.066-0.605-0.222-1.032-0.474-1.28c-0.252-0.256-0.713-0.393-1.376-0.409l-0.06,2.569c-0.013,0.222,0.049,0.375,0.177,0.461
		c0.122,0.085,0.384,0.128,0.781,0.145c0.745,0.018,1.353-0.103,1.833-0.35c0.48-0.248,0.909-0.734,1.293-1.442l0.322,0.008
		L52.84,161.804L52.84,161.804z"/>
	<path fill-rule="evenodd" clip-rule="evenodd" fill="#FFFFFF" d="M58.126,162.282l0.118-0.239c0.401,0.196,0.691,0.265,0.875,0.196
		c0.177-0.06,0.335-0.222,0.457-0.469l2.264-4.49c0.132-0.256,0.149-0.47,0.056-0.614c-0.096-0.154-0.312-0.325-0.647-0.529
		l0.122-0.239l2.631,1.332l-0.149,5.411l0.083,0.043l4.253-3.346l2.627,1.322l-0.117,0.239c-0.367-0.153-0.643-0.213-0.813-0.188
		c-0.179,0.034-0.359,0.23-0.54,0.598l-2.11,4.183c-0.177,0.341-0.229,0.605-0.149,0.776c0.072,0.171,0.284,0.358,0.629,0.547
		l-0.118,0.238l-3.465-1.741l0.115-0.247c0.318,0.153,0.576,0.213,0.771,0.213c0.2-0.008,0.371-0.153,0.519-0.436l2.33-4.626
		l-0.079-0.043l-5.363,4.276l-0.279-0.145l0.162-6.752l-0.045-0.018l-2.157,4.276c-0.16,0.316-0.211,0.581-0.156,0.786
		c0.055,0.213,0.301,0.435,0.736,0.674l-0.117,0.239L58.126,162.282L58.126,162.282z"/>
	<path fill-rule="evenodd" clip-rule="evenodd" fill="#FFFFFF" d="M73.986,171.757l-5.442-4.132l0.162-0.213
		c0.273,0.196,0.484,0.298,0.64,0.324c0.241,0.051,0.453-0.052,0.636-0.291l3.101-4.088c0.184-0.248,0.224-0.479,0.104-0.7
		c-0.06-0.128-0.222-0.308-0.478-0.529l0.162-0.205l5.361,4.063l-1.287,1.698l-0.229-0.171c0.296-0.631,0.374-1.16,0.246-1.57
		c-0.135-0.418-0.574-0.904-1.321-1.477c-0.286-0.214-0.486-0.324-0.602-0.324c-0.124-0.009-0.241,0.068-0.363,0.222l-1.477,1.963
		c0.523,0.401,0.946,0.59,1.27,0.556c0.329-0.043,0.719-0.265,1.182-0.666l0.241,0.179l-2.164,2.852l-0.239-0.18
		c0.301-0.529,0.418-0.973,0.367-1.323c-0.062-0.35-0.35-0.726-0.881-1.126l-1.549,2.04c-0.139,0.179-0.18,0.341-0.128,0.478
		c0.056,0.146,0.239,0.333,0.553,0.581c0.596,0.452,1.159,0.708,1.692,0.785c0.536,0.076,1.167-0.06,1.891-0.419l0.263,0.196
		L73.986,171.757L73.986,171.757z"/>
	<path fill-rule="evenodd" clip-rule="evenodd" fill="#FFFFFF" d="M75.044,172.662l0.156-0.213c0.356,0.238,0.625,0.35,0.809,0.315
		c0.184-0.043,0.358-0.171,0.521-0.393l2.977-4.037c-0.075-0.504-0.13-0.803-0.158-0.905c-0.028-0.111-0.094-0.205-0.201-0.299
		l0.158-0.222l1.996,1.468l0.591,5.976l0.045,0.034l1.867-2.535c0.211-0.29,0.308-0.538,0.284-0.751
		c-0.028-0.205-0.207-0.453-0.536-0.734l0.156-0.214l2.029,1.494l-0.162,0.214c-0.322-0.171-0.563-0.265-0.719-0.257
		c-0.156,0-0.329,0.137-0.523,0.393l-3.696,5.028l-0.262-0.196l-0.785-7.605l-0.062-0.052l-2.469,3.354
		c-0.19,0.257-0.286,0.47-0.286,0.641c-0.004,0.265,0.183,0.555,0.563,0.845l-0.162,0.223L75.044,172.662L75.044,172.662z"/>
	<path fill-rule="evenodd" clip-rule="evenodd" fill="#FFFFFF" d="M83.045,178.5l1.183-2.339l0.301,0.153
		c-0.184,0.794-0.168,1.443,0.049,1.955c0.22,0.512,0.57,0.888,1.061,1.136c0.474,0.238,0.871,0.307,1.182,0.179
		c0.305-0.111,0.523-0.299,0.653-0.538c0.137-0.281,0.149-0.571,0.032-0.854c-0.083-0.188-0.284-0.478-0.613-0.879l-0.525-0.648
		c-0.519-0.641-0.841-1.187-0.969-1.613c-0.124-0.436-0.081-0.871,0.139-1.307c0.233-0.461,0.636-0.802,1.204-1.016
		c0.563-0.213,1.227-0.137,1.979,0.248c0.386,0.196,0.732,0.435,1.037,0.717c0.307,0.29,0.486,0.443,0.536,0.47
		c0.111,0.06,0.205,0.068,0.284,0.034c0.075-0.043,0.151-0.103,0.228-0.188l0.31,0.154l-1.039,2.065l-0.291-0.153
		c0.101-0.547,0.062-1.076-0.115-1.605c-0.179-0.512-0.519-0.904-1.022-1.16c-0.35-0.171-0.674-0.23-0.969-0.154
		c-0.291,0.06-0.501,0.222-0.63,0.47c-0.149,0.299-0.162,0.572-0.044,0.819c0.111,0.248,0.424,0.683,0.933,1.306l0.606,0.743
		c0.273,0.342,0.463,0.648,0.574,0.947c0.205,0.555,0.177,1.084-0.079,1.597c-0.239,0.478-0.674,0.819-1.302,1.032
		c-0.632,0.214-1.406,0.095-2.322-0.375c-0.211-0.103-0.417-0.223-0.613-0.367c-0.201-0.146-0.384-0.308-0.557-0.495l-0.173-0.171
		c-0.041-0.034-0.079-0.068-0.118-0.094c-0.045-0.034-0.079-0.06-0.111-0.068c-0.107-0.06-0.196-0.068-0.263-0.025
		c-0.072,0.025-0.151,0.094-0.234,0.179L83.045,178.5L83.045,178.5z"/>
	<path fill-rule="evenodd" clip-rule="evenodd" fill="#FFFFFF" d="M103.214,182.069l-6.833-0.077l0.004-0.265
		c0.335-0.009,0.574-0.043,0.713-0.119c0.218-0.103,0.331-0.308,0.337-0.615l0.055-5.121c0.006-0.316-0.106-0.529-0.331-0.632
		c-0.126-0.068-0.361-0.111-0.7-0.137l0.004-0.265l6.735,0.068l-0.028,2.143l-0.286-0.009c-0.139-0.683-0.382-1.152-0.74-1.408
		c-0.352-0.256-0.996-0.393-1.934-0.401c-0.362,0-0.586,0.025-0.687,0.094c-0.094,0.068-0.145,0.205-0.149,0.401l-0.03,2.459
		c0.67,0.008,1.122-0.095,1.354-0.325c0.24-0.222,0.43-0.631,0.56-1.229l0.302,0.008l-0.047,3.577l-0.295-0.009
		c-0.077-0.598-0.239-1.024-0.498-1.28c-0.254-0.247-0.71-0.376-1.376-0.384l-0.032,2.569c0,0.222,0.062,0.375,0.19,0.461
		c0.122,0.085,0.384,0.128,0.78,0.128c0.745,0.009,1.359-0.111,1.832-0.367c0.476-0.256,0.898-0.751,1.273-1.46h0.322
		L103.214,182.069L103.214,182.069z"/>
	<path fill-rule="evenodd" clip-rule="evenodd" fill="#FFFFFF" d="M106.927,176.623l0.097-0.025l1.617,2.159l-2.219,0.486
		L106.927,176.623L106.927,176.623z M107.217,181.616l-0.055-0.256c-0.263,0.06-0.463,0.077-0.596,0.068
		c-0.236-0.017-0.369-0.103-0.401-0.256c-0.03-0.119-0.019-0.324,0.021-0.606c0.023-0.136,0.072-0.435,0.149-0.879l2.567-0.555
		l0.427,0.563c0.09,0.119,0.166,0.222,0.229,0.315c0.096,0.154,0.151,0.273,0.168,0.351c0.039,0.179,0.004,0.299-0.106,0.375
		c-0.106,0.068-0.346,0.146-0.715,0.248l0.056,0.256l3.705-0.803l-0.057-0.256c-0.262,0.06-0.482,0.018-0.666-0.137
		c-0.176-0.145-0.478-0.486-0.896-1.033l-3.73-4.882L107,174.199l-1.305,6.214c-0.106,0.495-0.193,0.819-0.273,0.973
		c-0.121,0.248-0.317,0.401-0.59,0.479l0.057,0.265L107.217,181.616L107.217,181.616z"/>
	<path fill-rule="evenodd" clip-rule="evenodd" fill="#FFFFFF" d="M114.191,173.054c-0.09-0.196-0.122-0.341-0.099-0.435
		c0.038-0.146,0.192-0.282,0.472-0.401c0.837-0.385,1.611-0.257,2.318,0.375c0.441,0.401,0.814,0.931,1.122,1.622
		c0.512,1.144,0.659,2.015,0.429,2.604c-0.222,0.58-0.652,1.016-1.283,1.298c-0.232,0.11-0.406,0.128-0.516,0.076
		c-0.113-0.051-0.218-0.188-0.314-0.375L114.191,173.054L114.191,173.054z M117.473,178.373c1.224-0.546,2.03-1.323,2.438-2.322
		c0.363-0.888,0.348-1.775-0.043-2.646c-0.436-0.974-1.099-1.613-1.992-1.912c-0.974-0.333-2.117-0.196-3.432,0.393l-3.262,1.459
		l0.107,0.248c0.295-0.103,0.506-0.153,0.645-0.153c0.245,0.008,0.418,0.145,0.531,0.393l2.134,4.763
		c0.118,0.265,0.088,0.486-0.072,0.683c-0.095,0.103-0.273,0.223-0.536,0.359l0.111,0.247L117.473,178.373L117.473,178.373z"/>
	<path fill-rule="evenodd" clip-rule="evenodd" fill="#FFFFFF" d="M128.374,171.45l-5.591,3.927l-0.156-0.222
		c0.267-0.196,0.439-0.376,0.512-0.513c0.117-0.213,0.086-0.443-0.09-0.691l-2.944-4.199c-0.177-0.257-0.388-0.359-0.634-0.325
		c-0.145,0.026-0.356,0.129-0.646,0.308l-0.156-0.222l5.52-3.867l1.227,1.75l-0.234,0.162c-0.513-0.478-0.992-0.708-1.428-0.708
		c-0.436-0.009-1.037,0.265-1.806,0.802c-0.294,0.205-0.459,0.358-0.501,0.479c-0.041,0.103-0.005,0.247,0.11,0.409l1.411,2.006
		c0.546-0.375,0.854-0.726,0.92-1.041c0.061-0.324-0.028-0.769-0.268-1.332l0.239-0.17l2.058,2.937l-0.246,0.17
		c-0.412-0.443-0.796-0.699-1.15-0.751c-0.35-0.06-0.803,0.111-1.342,0.486l1.473,2.101c0.128,0.188,0.267,0.272,0.418,0.272
		c0.149-0.017,0.391-0.128,0.713-0.35c0.607-0.436,1.031-0.888,1.271-1.374c0.232-0.487,0.295-1.136,0.18-1.93l0.265-0.188
		L128.374,171.45L128.374,171.45z"/>
	<path fill-rule="evenodd" clip-rule="evenodd" fill="#FFFFFF" d="M129.809,170.357l-0.158-0.222
		c0.352-0.265,0.541-0.495,0.569-0.691c0.021-0.188-0.052-0.393-0.218-0.623l-2.994-4.038c-0.172-0.23-0.35-0.341-0.524-0.324
		c-0.18,0.018-0.427,0.137-0.758,0.342l-0.162-0.214l2.364-1.758l4.771,2.569l0.079-0.052l-1.088-5.31l2.37-1.75l0.156,0.214
		c-0.301,0.256-0.476,0.47-0.531,0.641c-0.053,0.17,0.041,0.418,0.286,0.751l2.791,3.765c0.237,0.307,0.442,0.469,0.632,0.486
		c0.189,0.008,0.445-0.103,0.768-0.324l0.162,0.213l-3.115,2.313l-0.162-0.214c0.273-0.213,0.45-0.418,0.535-0.597
		c0.086-0.18,0.028-0.401-0.162-0.658l-3.083-4.156l-0.07,0.051l1.408,6.709l-0.249,0.188l-5.961-3.176l-0.045,0.034l2.861,3.85
		c0.212,0.282,0.416,0.444,0.635,0.487c0.211,0.042,0.518-0.077,0.926-0.351l0.162,0.205L129.809,170.357L129.809,170.357z"/>
	<path fill-rule="evenodd" clip-rule="evenodd" fill="#FFFFFF" d="M143.257,162.393l-0.02-0.273
		c0.444-0.034,0.724-0.128,0.845-0.273c0.124-0.153,0.176-0.366,0.152-0.648l-0.387-5.011c-0.02-0.29-0.109-0.478-0.265-0.555
		c-0.162-0.077-0.435-0.119-0.825-0.119l-0.023-0.265l2.938-0.223l2.672,4.712l0.094-0.008l1.906-5.07l2.938-0.223l0.021,0.265
		c-0.396,0.06-0.657,0.154-0.792,0.265c-0.139,0.12-0.188,0.385-0.16,0.785l0.361,4.678c0.027,0.385,0.119,0.632,0.272,0.734
		c0.156,0.12,0.431,0.162,0.826,0.146l0.017,0.272l-3.869,0.291l-0.021-0.265c0.344-0.043,0.603-0.111,0.77-0.214
		c0.166-0.11,0.238-0.324,0.217-0.648l-0.395-5.156h-0.09l-2.379,6.428l-0.314,0.025l-3.35-5.864l-0.056,0.009l0.366,4.78
		c0.028,0.35,0.125,0.598,0.28,0.751c0.155,0.154,0.478,0.214,0.976,0.196l0.021,0.265L143.257,162.393L143.257,162.393z"/>
	<path fill-rule="evenodd" clip-rule="evenodd" fill="#FFFFFF" d="M154.938,154.565l3.945-0.008v0.265
		c-0.45,0.017-0.753,0.076-0.907,0.196c-0.153,0.11-0.224,0.375-0.224,0.785l0.011,3.542c0,0.538,0.072,0.956,0.213,1.247
		c0.257,0.546,0.745,0.811,1.471,0.811c0.898,0,1.507-0.308,1.816-0.913c0.173-0.333,0.265-0.794,0.258-1.392l-0.006-3.235
		c-0.007-0.384-0.079-0.641-0.232-0.785c-0.156-0.146-0.459-0.23-0.91-0.256v-0.273h2.57v0.265
		c-0.374,0.068-0.619,0.145-0.736,0.239c-0.122,0.103-0.18,0.315-0.18,0.657l0.009,3.389c0.002,0.896-0.235,1.596-0.715,2.083
		c-0.476,0.495-1.228,0.742-2.256,0.742c-1.347,0.009-2.267-0.358-2.764-1.084c-0.259-0.384-0.395-0.879-0.395-1.485l-0.011-3.551
		c0-0.401-0.061-0.648-0.173-0.76c-0.118-0.094-0.378-0.171-0.785-0.214V154.565L154.938,154.565z"/>
	<path fill-rule="evenodd" clip-rule="evenodd" fill="#FFFFFF" d="M164.437,156.631l-0.11-2.135l7.024-0.418l0.133,2.126
		l-0.333,0.025c-0.156-0.751-0.504-1.246-1.037-1.494c-0.301-0.128-0.742-0.179-1.327-0.162l0.335,5.565
		c0.021,0.393,0.108,0.641,0.267,0.769c0.162,0.111,0.474,0.162,0.954,0.137l0.011,0.265l-4.159,0.247l-0.018-0.272
		c0.457-0.026,0.76-0.103,0.898-0.239c0.146-0.146,0.207-0.401,0.184-0.794l-0.335-5.565c-0.567,0.051-0.999,0.153-1.293,0.324
		c-0.546,0.308-0.83,0.837-0.852,1.596L164.437,156.631L164.437,156.631z"/>
	<path fill-rule="evenodd" clip-rule="evenodd" fill="#FFFFFF" d="M174.488,155.47l0.09-0.025l1.812,1.997l-2.168,0.683
		L174.488,155.47L174.488,155.47z M175.237,160.429l-0.086-0.256c-0.252,0.077-0.452,0.12-0.584,0.12
		c-0.235,0.008-0.38-0.068-0.425-0.214c-0.039-0.119-0.052-0.324-0.032-0.614c0.011-0.137,0.032-0.436,0.066-0.888l2.503-0.786
		l0.48,0.521c0.104,0.119,0.189,0.213,0.256,0.299c0.104,0.145,0.173,0.256,0.2,0.332c0.056,0.171,0.032,0.299-0.065,0.376
		c-0.103,0.085-0.336,0.188-0.694,0.316l0.086,0.256l3.606-1.145l-0.083-0.256c-0.252,0.086-0.475,0.068-0.664-0.06
		c-0.196-0.128-0.525-0.443-0.992-0.956l-4.166-4.516l-0.312,0.094l-0.724,6.317c-0.062,0.495-0.119,0.827-0.186,0.99
		c-0.1,0.247-0.277,0.427-0.54,0.528l0.077,0.257L175.237,160.429L175.237,160.429z"/>
	<path fill-rule="evenodd" clip-rule="evenodd" fill="#FFFFFF" d="M178.637,154.087l-1.168-1.793l5.884-3.866l1.188,1.775
		l-0.285,0.188c-0.513-0.572-1.059-0.837-1.642-0.769c-0.326,0.034-0.734,0.205-1.229,0.513l3.061,4.66
		c0.216,0.333,0.423,0.504,0.619,0.521c0.194,0.034,0.49-0.095,0.886-0.351l0.151,0.222l-3.487,2.288l-0.143-0.222
		c0.38-0.248,0.595-0.47,0.65-0.666c0.058-0.188-0.021-0.444-0.232-0.769l-3.066-4.66c-0.468,0.333-0.792,0.64-0.965,0.922
		c-0.312,0.546-0.294,1.144,0.062,1.818L178.637,154.087L178.637,154.087z"/>
	<path fill-rule="evenodd" clip-rule="evenodd" fill="#FFFFFF" d="M189.814,149.52c-0.519-0.145-1.109-0.461-1.786-0.938
		c-0.655-0.47-1.148-0.922-1.457-1.349c-0.592-0.828-0.632-1.597-0.12-2.313c0.367-0.521,0.893-0.769,1.573-0.734
		c0.681,0.026,1.482,0.367,2.402,1.024c0.668,0.47,1.161,0.931,1.477,1.366c0.581,0.811,0.615,1.579,0.107,2.287
		C191.496,149.581,190.767,149.802,189.814,149.52L189.814,149.52z M185.31,147.788c0.133,1.041,0.657,1.878,1.56,2.526
		c0.82,0.581,1.733,0.777,2.736,0.59c1.078-0.205,1.977-0.812,2.695-1.836c0.681-0.956,0.969-1.954,0.857-2.996
		c-0.11-1.059-0.618-1.912-1.527-2.561s-1.885-0.837-2.926-0.598c-1.016,0.239-1.863,0.837-2.542,1.801
		C185.448,145.705,185.164,146.738,185.31,147.788L185.31,147.788z"/>
	<path fill-rule="evenodd" clip-rule="evenodd" fill="#FAE3B6" d="M78.361,92.704c0,0-0.734-0.113-0.734-0.937
		s0.729-1.071,0.729-1.071h3.383l-0.021,2.008H78.361L78.361,92.704z"/>
	<polygon fill-rule="evenodd" clip-rule="evenodd" fill="#FAE3B6" points="95.098,120.413 91.737,122.649 95.066,124.945 
		94.255,128.915 98.22,128.18 100.443,131.561 102.723,128.214 106.678,129.025 105.945,124.945 109.314,122.7 105.975,120.506 
		106.826,116.46 102.818,117.271 100.438,113.951 98.314,117.237 94.362,116.417 95.098,120.413 	"/>
	<polygon fill-rule="evenodd" clip-rule="evenodd" fill="#FAE3B6" points="58.751,96.747 55.382,98.978 58.711,101.275 
		57.904,105.252 61.867,104.509 64.091,107.899 66.37,104.552 70.322,105.364 69.599,101.275 72.96,99.038 69.622,96.84 
		70.476,92.792 66.466,93.607 64.086,90.284 61.963,93.566 58.009,92.753 58.751,96.747 	"/>
	<polygon fill-rule="evenodd" clip-rule="evenodd" fill="#FAE3B6" points="131.396,96.691 128.028,98.927 131.357,101.223 
		130.549,105.193 134.512,104.458 136.734,107.838 139.016,104.493 142.969,105.303 142.245,101.223 145.605,98.978 142.264,96.776 
		143.117,92.738 139.11,93.547 136.73,90.229 134.607,93.507 130.655,92.698 131.396,96.691 	"/>
	<path fill-rule="evenodd" clip-rule="evenodd" fill="#FFFFFF" d="M114.595,106.191V88.144c0,0-3.401-0.809-4.864-0.798
		c-1.805,0.019-6.684,0.536-8.461,1.963c0,1.238,0,16.19,0,16.19s3.028-0.845,5.615-0.845
		C110.852,104.655,114.595,106.191,114.595,106.191L114.595,106.191z"/>
	<path fill-rule="evenodd" clip-rule="evenodd" fill="#FFFFFF" d="M117.943,107.838v-17.71c0,0-0.918-0.881-1.75-1.204
		c0,0.892,0,17.753,0,17.753S117.793,107.429,117.943,107.838L117.943,107.838z"/>
	<path fill="#0668B3" d="M110.164,101.607c-2.578-0.93-5.619,0.034-5.625,0.034l-0.263-0.793c0.007-0.009,3.333-1.059,6.172-0.034
		L110.164,101.607L110.164,101.607z M110.205,98.466c-2.602-0.803-5.641,0.196-5.648,0.205l-0.264-0.803
		c0.01,0,3.298-1.093,6.159-0.205L110.205,98.466L110.205,98.466z M110.211,95.566c-2.317-0.549-5.646,0.363-5.654,0.363
		l-0.264-0.799c0.01-0.002,3.592-0.979,6.11-0.382L110.211,95.566L110.211,95.566z M110.211,92.557
		c-2.305-0.546-5.666,0.55-5.672,0.553l-0.263-0.8c0.007,0,3.594-1.174,6.127-0.572L110.211,92.557L110.211,92.557z"/>
	<path fill-rule="evenodd" clip-rule="evenodd" fill="#EEB310" d="M85.085,136.264c-0.474,0.571-0.288,1.212-0.384,1.784
		c-0.094,0.571,0.45,1.938,1.304,2.604c0.854,0.665,2.759,0.333,1.908,0.614c-0.849,0.281-4.214,1.631-4.214,2.39
		c0,0.752,3.645-0.503,3.931-0.213c0.284,0.281,0.612,0.35-0.241,0.931c-0.826,0.571-6.287,1.442-6.227,2.74
		c0.056,1.246,0.256,4.481,0.922,4.387c2.077-4.148,10.09-6.513,8.477-5.411c-0.412,0.435-3.707,2.944-2.691,4.473
		c0.373,0.572,2.497,4.703,2.876,4.797c0.372,0.094-0.587-7.546,4.827-9.364c1.979-0.674-5.914,5.378,4.5,13.257
		c0-1.007,0-13.563,0-13.563c-1.468-2.168-3.892-4.379-5.023-5.232c-1.756-1.323-4.583-2.041-5.905-2.126
		C85.542,138.117,85.085,136.264,85.085,136.264L85.085,136.264z"/>
	<path fill-rule="evenodd" clip-rule="evenodd" fill="#EEB310" d="M58.02,18.041c0,0,1.925-1.483,2.932-2.081
		c0.894-0.527,2.605-1.816,3.35-2.414c0.474-0.377,2.715-2.134,2.079-2.134c0,0-2.94,0.111-3.918,1.054
		c-0.094-0.57,2.079-4.07,3.312-4.729c-0.38-0.472-0.567-0.708-1.511-0.662c-3.939,0.177-5.487,3.683-6.526,4.441
		c-0.565-0.19-1.14-3.427-1.223-3.803c-1.138,0.666-1.846,2.008-1.989,2.766c-0.136,0.67-0.196,4.249-0.286,5.102
		c-0.056,0.506,0.228,2.747-1.616,4.526c-0.683,0.664-1.099,0.467-1.316,0.391c-0.568-0.19-0.19-0.38,0.19-0.753
		c0.38-0.38,1.321-1.895,1.227-2.648c-0.096-0.758-0.76-2.702-3.308-3.026c-1.376-0.179-2.174-0.096-3.026,0.758
		c0.852,0.563,3.216,1.607,3.312,3.591c0.094,1.985-1.801,3.784-3.028,4.441c-1.231,0.664-3.555,1.095-5.38,1.095
		c-1.844,0-3.054-0.139-3.997-0.77c-0.734-0.498-0.935-1.49-0.312-2.309c0.563-0.73,0.579-1.104,0.847-0.312
		c0.501,1.494,2.693,0.999,3.312,0.926c1.214-0.134,2.871-1.539,2.437-3.088c-0.269-0.95-0.642-2.42-4.061-2.42
		c-3.12,0-7.458,1.968-6.995,7.508c0.134,1.6,1.835,4.667,7.422,5.326c0,0,2.104,0.339,3.141,0.339c0,0,1.355,0.039,3.927-0.659
		c3.952-1.069,22.723-13.993,27.042-10.625c1.238,1.413,0.457,2.533,0.118,2.945c-0.158,0.184-0.374-1.25-1.658-1.532
		c-0.962-0.217-3.092,0.529-3.024,2.631c0.098,3.071,3.276,3.158,3.466,3.158c3.634,0.068,5.058-3.811,5.058-6.556
		c0-2.74-1.528-5.723-5.404-5.723c-3.094,0-4.921,0.881-5.798,1.37c-1.037,0.581-5.685,3.105-7.189,3.875
		c-1.372,0.708-1.511,0.854-1.511,0.854C57.832,18.611,58.02,18.041,58.02,18.041L58.02,18.041z"/>
	<path fill-rule="evenodd" clip-rule="evenodd" fill="#EEB310" d="M24.148,99.977c0.205,0.41,0.781,0.819,1.097,1.024
		c0.341,0.222,5.145,2.125,5.666-4.798c0.181-2.49-2.115-9.63-2.544-11.767c-0.457-2.313-0.672-8.039,3.032-10.096
		c3.005-1.445,5.783,0.668,5.973,2.937c0.19,2.271-1.105,2.734-1.846,3c-1.016,0.367-3.359-0.19-3.463-1.846
		c0,0-0.826,1.995,0.424,3.312c0.207,0.224,0.903,0.73,1.951,0.924c3.896,0.318,4.983-1.632,5.459-2.412
		c0.854-1.389,1.048-2.921,1.02-5.019c-0.045-2.757-2.181-6.332-6.244-6.332c-2.243,0.201-3.782,0.941-4.443,2.269
		c-0.757-1.231-0.854-2.081-0.284-3.122c0.568-1.038,1.605-2.079,3.69-2.458c-0.094-1.985-4.065-2.911-5.011-2.838
		c-1.434,0.113-1.428,0.213-2.648,0.664c-0.19-0.757-0.286-2.49,1.878-3.82c5.073-3.105,7.838,3.229,7.956,0.792
		c0.177-3.891,4.102-4.119,4.102-4.119s-0.55,3.327-0.322,3.741c0.277,1.171,2.932,3.502,3.784,6.15
		c0.847,2.646,0.66,4.157-0.094,6.142c0.094,0.854,0.284,0.854,0.284,0.854c0.943-1.137,1.607-3.028,1.891-4.823
		c0.286-1.795,0.965-5.107-0.926-12.298c-1.889-7.186-6.163-8.406-7.017-8.406c-1.199,0-2.074,0.446-2.554,0.941
		c-0.416,0.441-0.892,1.44-0.301,2.198c0.367,0.472,0.871,0.207,1.248-0.307c0.56-0.753,1.394-0.774,1.963-0.679
		c0.568,0.094,1.583,0.83,1.583,1.872c0,1.037-1.193,3.039-3.463,3.229c-2.269,0.19-4.202-1.528-4.486-2.098
		c-0.286-0.563-0.971-4.471-0.821-5.056c1.383-5.54,7.198-6.622,7.115-10.408c-0.051-2.168-0.423-2.208-0.653-3.446
		c-0.525-2.798,1.383-4.842,1.383-4.842c0.664,0.094,4.533,0.529,5.76,0.529c0,0,0.997,2.307,4.277,3.739
		c2.134,0.933,3.064,0.836,4.392,0.459c0.094,0.655-0.201,1.041-0.854,1.387c-1.622,0.854-1.34,1.451-1.34,1.735
		c0,0.277,2.384,1.758,2.384,5.356c-0.664-0.19-3.803-3.378-6.071-3.285c-0.57,0.476,0.188,1.078,0.491,1.767
		c0.295,0.687,0.758,1.897,0.758,3.028c-1.042-0.568-2.369-1.417-3.692-1.417c-1.319,0-3.31,1.227-3.31,1.891
		c1.515,1.321,7.661,4.347,9.271,10.498c1.604,6.144,0.943,14.466-0.474,18.436c-1.421,3.969-4.07,9.36-9.644,11.438
		c-1.946,0.659-3.222,0.452-3.596,0.38c-1.216-0.239-2.554-1.042-2.926-1.225c-0.286,0.372,0.367,2.01,1.487,3.98
		c0.73,1.274,2.023,3.351,5.291,3.69c2.313,0.051,3.482-2.864,1.59-3.485c0.021,0.875-0.201,1.193-0.931,1.583
		c-0.621,0.329-1.374-0.083-1.658-0.557c-0.284-0.467-0.267-1.767,0.414-2.348c0.536-0.452,0.89-0.879,2.407-0.785
		c1.511,0.096,3.73,3.005,1.979,5.758c-0.389,0.614-1.37,2.164-3.583,2.347c-1.601,0.134-4.3-0.916-5.365-1.856
		c-1.018-0.898-1.018-1.387-2.2-1.428c-0.664,0.753,2.179,3.116,2.766,3.478c2.273,1.42,3.259,1.635,5.613,2.31
		c2.576,0.738,2.776,1.959,3.536,3.76c-1.138,0-1.53,0.094-2.461,0.29c-0.864,0.171-1.332,0.675-1.421,0.939
		c-0.781,2.552,0.167,5.915,0.435,7.819c-0.363,0.87-4.048,2.287-5.066,0.478c1.058-1.392,2.238-3.603,1.385-6.504
		c-1.169-3.022-2.926-3.586-2.926-3.586s-0.854,2.023-1.899,2.979c-0.732,0.803-3.005,2.749-7.209,2.006
		c-1.718-0.299-3.527-1.818-4.298-3.252L24.148,99.977L24.148,99.977z"/>
	<path fill-rule="evenodd" clip-rule="evenodd" fill="#EEB310" d="M21.957,101.59c-0.273-0.367-0.557-1.298-0.584-1.903
		c-0.056-1.033,0.194-4.631,3.613-4.981c1.944-0.2,3.312,0.986,3.312,2.693c0,1.699-1.735,2.168-2.731,1.869
		c-0.297-0.085-1.183-0.904-0.85-1.852c0.19-0.529-0.785,0.034-0.858,1.032c-0.049,0.657,0.073,0.99,0.291,1.528L21.957,101.59
		L21.957,101.59z"/>
	<path fill-rule="evenodd" clip-rule="evenodd" fill="#EEB310" d="M31.779,53.174c0,0-2.268-4.834-2.469-4.99
		c-0.681-1.617-1.359-2.381-1.105-3.831c0.256-1.445,1.603-2.036,2.369-2.887c-0.593-0.681-1.754-0.815-1.97-0.708
		c-0.248,0.122-3.018,0.708-2.188,4.958c-2.074-2.375-2.797-2.343-3.948-2.17c-0.372,0.058-1.899,0.179-2.902,1.867
		c1.445,0.341,3.707,0.982,3.707,1.835c-0.598,0.595-2.672,2.296-2.811,3.489c-0.224,1.889,0.687,2.427,1.193,2.638
		c0.422-2.379,1.511-3.429,2.638-3.572c1.014-0.134,2.234-0.154,3.912,0.762C30.079,51.59,31.779,53.174,31.779,53.174
		L31.779,53.174z"/>
	<path fill-rule="evenodd" clip-rule="evenodd" fill="#EEB310" d="M97.58,3.606c0,0,0.828-2.556,2.557-3.521
		c0,0,0.742,10.491-2.307,13.775c-3.026,3.261-6.114,3.572-7.693,3.963c-6.59,1.611-9.36,2.616-11.652,4.426
		c0.525-9.031-0.233-11.656,7.243-15.137c0.06,0.179-1.818,4.21-2.068,6.496c-0.096,0.871-0.096,0.871-0.096,0.871
		c0.267,0.246,0.875,0.122,1.144-0.296c0.229-0.363,3.877-5.67,6.093-6.016c0.173,0.173-0.931,1.285-1.342,2.215
		c-0.275,0.629-0.493,1.771-0.103,2.044c0.642,0.458,1.59,0.151,2.309-0.25c0.374-0.207,2.781-1.434,2.591-5.919
		c-0.111-0.348-0.444-1.622-2.102-1.915c0.326-0.93,1.206-1.287,2.215-0.986c1.099,0.322,2.085,1.37,2.659,1.466L97.58,3.606
		L97.58,3.606z"/>
	<path fill-rule="evenodd" clip-rule="evenodd" fill="#EEB310" d="M115.803,136.298c0.476,0.571,0.287,1.212,0.384,1.784
		c0.094,0.563-0.456,1.938-1.311,2.604c-0.847,0.665-2.759,0.324-1.905,0.605c0.854,0.282,4.215,1.639,4.215,2.391
		c0,0.76-3.647-0.495-3.93-0.205c-0.285,0.273-0.613,0.35,0.24,0.931c0.83,0.571,6.286,1.442,6.23,2.739
		c-0.055,1.247-0.26,4.482-0.924,4.388c-2.074-4.157-10.086-6.513-8.48-5.42c0.418,0.443,3.707,2.953,2.693,4.481
		c-0.373,0.572-2.492,4.703-2.873,4.797c-0.377,0.094,0.581-7.546-4.831-9.372c-1.98-0.666,5.915,5.386-4.494,13.265
		c0-1.007,0-13.563,0-13.563c1.462-2.168,3.886-4.388,5.023-5.241c1.757-1.314,4.581-2.032,5.903-2.117
		C115.34,138.142,115.803,136.298,115.803,136.298L115.803,136.298z"/>
	<path fill-rule="evenodd" clip-rule="evenodd" fill="#EEB310" d="M142.863,18.073c0,0-1.924-1.481-2.934-2.079
		c-0.891-0.529-2.598-1.818-3.351-2.414c-0.474-0.378-2.708-2.141-2.079-2.141c0,0,2.945,0.118,3.919,1.054
		c0.096-0.565-2.079-4.065-3.31-4.729c0.379-0.467,0.569-0.7,1.515-0.657c3.938,0.179,5.487,3.686,6.524,4.443
		c0.566-0.19,1.135-3.43,1.22-3.801c1.138,0.662,1.847,2.006,1.995,2.757c0.133,0.67,0.19,4.255,0.284,5.108
		c0.052,0.506-0.232,2.747,1.613,4.526c0.685,0.657,1.097,0.467,1.314,0.391c0.567-0.19,0.188-0.38-0.189-0.76
		c-0.374-0.371-1.323-1.891-1.228-2.642c0.094-0.758,0.764-2.704,3.313-3.028c1.372-0.177,2.174-0.094,3.021,0.76
		c-0.848,0.563-3.212,1.604-3.306,3.591c-0.096,1.985,1.795,3.779,3.022,4.441c1.23,0.664,3.561,1.093,5.377,1.093
		c1.846,0,3.057-0.139,4.004-0.769c0.736-0.497,0.93-1.489,0.307-2.309c-0.559-0.73-0.58-1.108-0.85-0.312
		c-0.501,1.494-2.69,0.992-3.303,0.926c-1.223-0.141-2.877-1.539-2.438-3.09c0.27-0.945,0.641-2.418,4.059-2.418
		c3.116,0,7.455,1.968,6.992,7.507c-0.135,1.601-1.829,4.667-7.42,5.325c0,0-2.103,0.339-3.146,0.339c0,0-1.353,0.041-3.924-0.657
		c-3.946-1.076-22.723-13.993-27.038-10.625c-1.242,1.411-0.464,2.533-0.118,2.945c0.152,0.184,0.369-1.249,1.658-1.534
		c0.957-0.218,3.088,0.531,3.022,2.631c-0.097,3.073-3.28,3.16-3.47,3.16c-3.635,0.066-5.052-3.813-5.052-6.556
		s1.524-5.726,5.397-5.726c3.101,0,4.93,0.881,5.805,1.372c1.03,0.574,5.68,3.105,7.185,3.874c1.372,0.702,1.511,0.854,1.511,0.854
		C143.054,18.643,142.863,18.073,142.863,18.073L142.863,18.073z"/>
	<path fill-rule="evenodd" clip-rule="evenodd" fill="#EEB310" d="M165.893,104.988c0,0,5.068,4.755,3.92,8.869
		c-0.09,0.333-0.803,3.27-4.834,4.114c-0.664-0.282-1.227-1.298-1.79-1.34c-1.231-0.095-4.091,4.712-4.737,5.693
		c-0.67,1.032-1.996,2.979-1.996,3.927c0,0.947,3.979-1.904,5.536-3.466c1.56-1.563,1.101-3.235,2.425-3.235
		c0.283,1.237,0.059,2.211,0.346,2.313c0.283,0.094,3.06-2.774,4.95-2.398c1.896,0.375,4.334,3.158,4.053,5.053
		c-0.619,0.444-3.585-1.229-4.336-1.323c-0.677-0.094-1.524,0.12-1.206,0.982c0.76,0.366,3.288,3.354,2.541,3.807
		c-0.744,0.452-0.975-1.127-6.459-1.05c-3.391,0.265-4.506,1.853-4.467,3.09c0.021,0.751,0.168,1.46,0.612,1.604
		c0.819,0.265,1.912,0.291,4.946-0.307c2.604-0.513,2.641-1.067,2.542,0.068c-0.062,0.623-2.253,1.434-2.253,2.476
		c0,1.041,5.563,2.398,1.383,8.083c-2.151,2.305-6.777,2.425-7.922,1.844c-0.283-0.571,3.299-2.271,2.845-4.541
		c-0.075-0.384-0.843-2.159-3.001-2.305c-1.306-0.094-0.15,2.535-2.921,2.766c0-3.517-1.81-3.363-1.81-3.363s-0.984-0.171-3.391,0.7
		c-1.78,0.641-3.123,0.947-3.686,2.168c-0.568,1.238-0.097,0.666,0.751,0.666c0.854,0,1.841-0.666,2.979-0.479
		c1.131,0.188,2.258,1.451,2.535,2.767c0.283,1.331,0.496,4.242-0.92,4.617c0,0-0.696-2.766-4.616-4.379
		c-1.142-0.47-2.821-0.436-4.616,0.23c-1.799,0.657-8.312,3.799-14.84,3.799c-6.521,0-10.881-4.814-11.725-6.615
		c-2.987-6.419,1.518-10.243,4.633-10.115c5.541,0.238,5.982,4.388,5.771,5.317c-0.235,1.016-0.592,3.167-3.219,2.689
		c-1.682-0.308-1.81-2.629-1.81-2.629c-1.545,0.256-1.566,1.81-1.493,2.228c0.373,2.321,2.975,2.979,4.397,3.201
		c1.054,0.171,2.915,0.213,4.204-0.06c0,0,8.801-1.017,14.309-4.516c6.791-4.312,8.603-7.546,11.078-12.924
		c3.246-6.649,4.699-15.203,4.699-15.203s3.173,2.604,3.004,2.655C166.3,109.401,165.893,104.988,165.893,104.988L165.893,104.988z"
		/>
	<path fill-rule="evenodd" clip-rule="evenodd" fill="#EEB310" d="M34.989,104.954c0,0-5.06,4.755-3.918,8.869
		c0.09,0.333,0.803,3.27,4.833,4.114c0.664-0.282,1.228-1.298,1.791-1.34c1.231-0.095,4.091,4.712,4.738,5.693
		c0.67,1.032,2.001,2.979,2.001,3.927c0,0.947-3.98-1.904-5.54-3.466c-1.563-1.563-1.105-3.227-2.427-3.227
		c-0.286,1.229-0.062,2.211-0.343,2.305c-0.286,0.094-3.063-2.774-4.951-2.398c-1.891,0.375-4.338,3.167-4.055,5.053
		c0.619,0.444,3.585-1.221,4.343-1.323c0.67-0.094,1.518,0.129,1.199,0.982c-0.757,0.366-3.291,3.354-2.542,3.807
		c0.747,0.452,0.973-1.127,6.464-1.041c3.387,0.256,4.501,1.844,4.462,3.081c-0.023,0.76-0.162,1.469-0.615,1.613
		c-0.813,0.256-1.912,0.282-4.944-0.307c-2.597-0.513-2.642-1.076-2.535,0.06c0.053,0.632,2.245,1.434,2.245,2.476
		c0,1.041-5.563,2.398-1.383,8.083c2.153,2.305,6.78,2.425,7.93,1.844c0.277-0.563-3.308-2.271-2.849-4.541
		c0.077-0.384,0.847-2.151,2.998-2.305c1.304-0.094,0.156,2.535,2.926,2.774c0-3.525,1.808-3.372,1.808-3.372s0.979-0.171,3.389,0.7
		c1.784,0.641,3.122,0.947,3.69,2.177c0.57,1.229,0.096,0.657-0.758,0.657c-0.852,0-1.839-0.666-2.975-0.47
		c-1.133,0.18-2.254,1.442-2.54,2.766c-0.284,1.323-0.495,4.234,0.926,4.618c0,0,0.691-2.774,4.616-4.388
		c1.137-0.469,2.821-0.427,4.616,0.23c1.795,0.657,8.312,3.799,14.833,3.799c6.524,0,10.89-4.814,11.725-6.615
		c2.988-6.419-1.511-10.243-4.626-10.115c-5.542,0.238-5.988,4.388-5.777,5.317c0.235,1.017,0.591,3.167,3.218,2.689
		c1.684-0.308,1.812-2.629,1.812-2.629c1.545,0.256,1.566,1.81,1.5,2.228c-0.378,2.322-2.983,2.979-4.405,3.201
		c-1.054,0.171-2.915,0.213-4.202-0.06c0,0-8.805-1.017-14.311-4.508c-6.792-4.319-8.604-7.554-11.078-12.932
		c-3.246-6.649-4.701-15.194-4.701-15.194s-3.167,2.595-3.003,2.646C34.583,109.367,34.989,104.954,34.989,104.954L34.989,104.954z"
		/>
	<path fill-rule="evenodd" clip-rule="evenodd" fill="#EEB310" d="M103.306,3.643c0,0-0.771-2.616-2.499-3.579
		c0,0-0.803,10.54,2.247,13.829c3.032,3.261,6.12,3.572,7.69,3.963c6.597,1.613,9.367,2.616,11.658,4.426
		c-0.524-9.031,0.235-11.654-7.246-15.132c-0.054,0.171,1.822,4.202,2.069,6.494c0.099,0.869,0.099,0.869,0.099,0.869
		c-0.273,0.245-0.879,0.124-1.148-0.301c-0.229-0.358-3.873-5.664-6.086-6.014c-0.18,0.177,0.93,1.281,1.338,2.217
		c0.277,0.629,0.495,1.773,0.104,2.046c-0.645,0.457-1.59,0.146-2.308-0.25c-0.373-0.213-2.789-1.434-2.599-5.922
		c0.11-0.352,0.448-1.628,2.103-1.912c-0.322-0.93-1.204-1.289-2.209-0.986c-1.098,0.322-2.09,1.37-2.657,1.466L103.306,3.643
		L103.306,3.643z"/>
	<path fill-rule="evenodd" clip-rule="evenodd" fill="#FAE3B6" d="M73.468,50.453c0.478,0.162,1.79,1.345,2.102,1.684
		c1.244-0.339,12.208-5.687,12.977-6.606c0.625-0.935,0.636-1.851,0.926-1.692c1.688,0.924,2.465-0.308,3.69-1.541
		c1.601-1.601,2.896-2.919,3.101-3.177c2.185,0,24.618-0.011,24.618-0.011s5.223,0.145,5.643-1.895
		c0.211-1.98-2.381-2.309-4.467-2.309c-2.078,0-7.883,0.792-10.085,1.506c-1.978,0.506-3.884,1.477-6.28,1.477
		c-2.395,0-6.306-0.715-6.724-3.351c-0.414-2.638,1.248-3.658,3.539-4.255c2.287-0.595,1.875,0,1.455-0.429
		c-0.418-0.422-0.346-0.405-0.313-0.935c0.135-2.015,2.846-3.24,3.674-3.24c0.832,0-2,2.458-1.074,4.091
		c0.211,0.367,0.306-2.553,6.311-2.245c0.848,0.042-5.141,3.817-4.438,3.694c3.513-0.617,3.617,1.21,0.83,2.207
		c-0.478,0.175-4.098,0.653-3.47,0.41c0.768-0.313,1.515-0.919,1.576-1.587c0.111-1.183-2.343-0.722-2.851-0.627
		c-0.54,0.106-2.676,0.542-2.78,2.247c0.076,1.033,1.314,1.756,3.072,1.901c3.511-0.111,4.313-0.687,5.536-1.048
		c1.46-0.442,7.134-2.236,11.399-2.324c4.299-0.092,7.068,0.695,8.168,2.2c1.693,2.309,1.192,4.142,0.463,5.074
		c-0.732,0.937-3.744,1.571-3.744,1.571c0,1.193,0.626,2.046,1.145,2.471c0.525,0.429,3.049,1.349,3.675,1.349
		c0.623,0,2.808-0.184,2.808,0.156s-0.924,1.231-2.307,2c-0.384,0.214-1.082,2.774-1.082,2.774l1.35,1.993
		c0,0-5.848,2.616-3.078,3.077c2.297,0.384,2.22,1.646,2.176,2.271c-0.08,0.522-0.934,1.271-1.557,1.271s-2.102-0.586-2.313-0.928
		c-0.696,0.815-1.355,2.181-2.459,2.16c-1.041-0.023-2.576-1.076-2.621-2.16c-0.025-0.802,0.943-1.865,1.695-2.151
		c-0.333-0.331-3.479-0.056-1.846-2.465c0.658-0.969,2.314-0.517,2.923,0.307c0.519,0.708,1.114-1.839,1.114-1.839l0.736-2.776
		c0,0-4.505,0.173-5.234,0c-0.727-0.167-2.387-0.401-4.153-2.614s-1.729-2.546-3.077-2.465c-1.355,0.09-4.733,0.805-7.85,3.696
		c-2.266,3.261-6.619,2.309-8.436,1.283c-1.361-0.769-0.937,0.085-1.248-0.512c-0.314-0.598-0.83-2.213-1.249-2.213
		s-0.732,0.596-0.625,1.021c0.105,0.429,0.613,1.148,0.512,1.662c-0.104,0.506,0.113,1.404-0.719,1.744
		c-0.831,0.339-0.707,2.872-1.438,2.872c-0.724,0-2.851-1.628-3.997-1.541c-1.146,0.085-2.915,0.584-3.541,1.694
		c-1.765,0-5.384-0.312-5.079,2.303c-2.156-1.073-3.21-1.332-3.628-0.139c-0.418,1.193,1.161,2.759-1.449,3.064
		c-0.708,0.085-1.539-0.645-1.673-1.024c-0.263-0.753,0.139-1.654-0.329-1.438c-2.03,0.954-3.233,0.619-3.233,0.619
		c-0.941,0.096-2.894-2.292,0-3.078c1.249-0.339,2.002-0.356,2.002-0.356s-1.579-0.691-1.383-1.801
		C71.238,49.294,73.468,50.453,73.468,50.453L73.468,50.453z"/>
	<path fill-rule="evenodd" clip-rule="evenodd" fill="#FAE3B6" d="M81.009,43.679l2.776,2.262l-6.155,3.385
		c0,0,0.201-0.512-1.844-2.002c-1.626-1.182-4.863-1.182-4.863-1.182s2.416-1.037,1.808-1.304c-0.979-0.429-2.147-1.577-2.179-1.052
		c0.006-0.118-3.285,3.784-4.315-0.414c-0.529-2.141,2.358-1.705,2.776-2.046c-0.207-0.769-1.396,0.508-2.319-1.336
		c-1.121-2.241,1.231-3.385,2.462-3.233c1.686,0.211,1.392,2.224,1.808,2.478c0.412,0.258,0.107-1.153,1.421-1.347
		c0.83-0.023,1.165,0.228,1.59,0.664c0.079,0.079,0.149,0.167,0.211,0.26c0.418,0.591,0.313,0.931,0.106,1.784
		c-0.213,0.854-0.836,0.681-0.732,0.937c0.106,0.256,1.144,1.361,1.767,1.701c0.625,0.339,3.218,1.214,3.218,1.214L81.009,43.679
		L81.009,43.679z"/>
	<path fill-rule="evenodd" clip-rule="evenodd" fill="#FAE3B6" d="M112.245,46.142c0.569,0,2.004-0.308,2.004-0.308
		s1.229,2.004,2.77,2.774c0.306,0.149-0.922,1.844,0.619,2.919c0.317,0.222-2.454-0.297-3.389,0.156
		c-1.317,0.632-2.143,2.271-3.692,3.229c-2.112,1.311,0.353,2.988-0.307,3.082c-0.662,0.096-2.676-1.148-3.055-1.148
		s-1.891,0.47-1.891,1.133s1.238,2.29-0.947,2.836c-1.113,0.28-2.1-0.352-2.174-1.643c-0.908-0.158-1.395,0.584-1.395,0.584
		c-0.83,0.931-2.212,0.741-2.545-0.843c-0.085-0.401-0.307-2.151,2.241-2.255c0.758-0.034,0.758,0.284,0.945,0
		c0.186-0.286-1.778-0.926-1.494-1.59c0.286-0.662,0.615-2.002,2.533-1.155c1.041,0.457,1.248,0.696,1.415,0.854
		c0.214,0.184,6.054-4.164,6.054-4.164s-0.618-0.358-1.383-0.612c-0.691-0.23-1.787,0.292-1.693-0.465
		C106.955,48.775,111.684,46.142,112.245,46.142L112.245,46.142z"/>
	<path fill-rule="evenodd" clip-rule="evenodd" fill="#FAE3B6" d="M85.431,40.852c0.145,0.331,1.974,1.255,2.915,0.982
		c0.258-0.07-0.218,2.714-3.105,2.597c-2.894-0.115-3.254-3.248-2.86-2.943C83.007,41.974,85.431,40.852,85.431,40.852
		L85.431,40.852z"/>
	<path fill-rule="evenodd" clip-rule="evenodd" fill="#FAE3B6" d="M79.908,40.318c0.807,0.74,1.628,1.135,1.609,0.969
		c0.039,0.418-0.581,1.327-1.165,1.513c-0.585,0.188-1.4-0.376-1.4-1.037C78.952,41.097,79.908,40.318,79.908,40.318L79.908,40.318z
		"/>
	<path fill-rule="evenodd" clip-rule="evenodd" fill="#FAE3B6" d="M90.555,40.519c-0.815,0.74-1.626,1.135-1.618,0.969
		c-0.032,0.414,0.585,1.323,1.174,1.513c0.578,0.188,1.398-0.38,1.398-1.043C91.509,41.3,90.555,40.519,90.555,40.519L90.555,40.519
		z"/>
	<path fill-rule="evenodd" clip-rule="evenodd" fill="#FAE3B6" d="M76.513,34.876c-0.051,1.099,0.173,1.979,0.294,1.863
		c-0.294,0.289-1.393,0.401-1.912,0.077c-0.519-0.329-0.608-1.314-0.101-1.746C75.303,34.648,76.513,34.876,76.513,34.876
		L76.513,34.876z"/>
	<path fill-rule="evenodd" clip-rule="evenodd" fill="#FAE3B6" d="M94.58,34.876c0.051,1.099-0.173,1.979-0.291,1.863
		c0.291,0.289,1.39,0.401,1.908,0.077c0.519-0.329,0.606-1.314,0.098-1.746C95.796,34.648,94.58,34.876,94.58,34.876L94.58,34.876z"
		/>
	<path fill-rule="evenodd" clip-rule="evenodd" fill="#FAE3B6" d="M78.346,96.125c0,0-0.73-0.111-0.73-0.936
		c0-0.819,0.73-1.071,0.73-1.071h3.378l0.013,2.015L78.346,96.125L78.346,96.125z"/>
	<path fill-rule="evenodd" clip-rule="evenodd" fill="#FAE3B6" d="M78.361,99.696c0,0-0.734-0.111-0.734-0.939
		s0.729-1.067,0.729-1.067h3.383l0.006,2.015L78.361,99.696L78.361,99.696z"/>
	<path fill-rule="evenodd" clip-rule="evenodd" fill="#FAE3B6" d="M78.361,103.135c0,0-0.734-0.111-0.734-0.931
		c0-0.828,0.729-1.075,0.729-1.075h3.383l0.006,2.015L78.361,103.135L78.361,103.135z"/>
	<path fill-rule="evenodd" clip-rule="evenodd" fill="#FAE3B6" d="M78.361,106.618c0,0-0.734-0.11-0.734-0.938
		c0-0.819,0.729-1.067,0.729-1.067h3.383l0.006,2.015L78.361,106.618L78.361,106.618z"/>
	<path fill-rule="evenodd" clip-rule="evenodd" fill="#FAE3B6" d="M85.286,37.732c0.004,0,0.006,0,0.011,0c0.009,0,0.017,0,0.028,0
		c0.004,0,0.009,0,0.013,0c0.009,0,0.02,0,0.03,0c0.002,0,0.007,0,0.009,0c0.011,0,0.021,0,0.032,0c0.004,0,0.007,0,0.013,0
		c0.008,0,0.019,0,0.03,0c0.004,0,0.006,0,0.011,0c0.011,0,0.017,0,0.028,0c0.004,0,0.01,0,0.017,0
		c0.798-0.03,1.502-0.213,1.682-0.391c0.567-0.574,0.457-1.249,0.441-1.846c-0.023-0.692-0.252-1.671-0.252-1.671
		c0.63-0.258,2.755-0.659,3.423-0.981c0.952-0.463,0.567,1.56,0.567,1.56c-0.623,0.339-2.736,0.774-2.736,0.774
		c0.004,0.346,0.066,0.941,0,2.427c-0.017,0.437-0.687,0.924-1.154,1.27c-0.414,0.307-1.839,0.229-1.839,0.229
		s0.435,1.221,2.029,1.037c0.691-0.077,2.072-0.062,2.881-0.747c0.503-0.429,0.766-0.864,0.766-0.864
		c0.371,0.252,0.482,0.687,1.014,1.037c0.696,0.461,0.764,0.401,1.609,0.162c0.359-0.103,0.732-1.238,0.23-1.662
		c-0.501-0.429-0.356-0.378-0.86-0.636c-0.508-0.256-0.534-0.377-0.414-0.634c0.13-0.256,0.459-0.653,0.538-0.898
		c0.228-0.719-0.194-2.001,0.418-1.991c2.324,0.045,2.414-2.942,0.892-3.227c-2.476-0.467-2.23,1.438-2.604,1.18
		c-0.38-0.254,1.459-1.95-0.576-3.203c-1.276-0.788-2.834-0.179-2.834-0.179s-0.224-0.042-1.099,1.3
		c-0.303,0.463-0.103-1.473-0.954-1.963c-0.44-0.258-0.871-0.403-1.272-0.463v-0.004c-0.002,0-0.004,0.002-0.009,0.002
		c-0.002,0-0.004-0.002-0.008-0.002v0.004c-0.401,0.06-0.833,0.205-1.274,0.463c-0.85,0.491-0.653,2.426-0.956,1.963
		c-0.873-1.342-1.093-1.3-1.093-1.3s-1.56-0.608-2.843,0.179c-2.029,1.253-0.189,2.949-0.567,3.203
		c-0.38,0.258-0.128-1.647-2.605-1.18c-1.522,0.284-1.432,3.271,0.892,3.227c0.608-0.01,0.192,1.272,0.414,1.991
		c0.077,0.246,0.412,0.643,0.536,0.898c0.128,0.256,0.094,0.378-0.407,0.634c-0.502,0.258-0.359,0.207-0.858,0.636
		c-0.508,0.424-0.128,1.56,0.228,1.662c0.847,0.239,0.907,0.299,1.611-0.162c0.529-0.35,0.636-0.785,1.014-1.037
		c0,0,0.256,0.436,0.764,0.864c0.809,0.685,2.191,0.67,2.878,0.747c1.596,0.184,2.032-1.037,2.032-1.037s-1.428,0.079-1.844-0.229
		c-0.47-0.346-1.133-0.833-1.154-1.27c-0.06-1.485,0-2.081,0-2.427c0,0-2.106-0.435-2.738-0.774c0,0-0.377-2.023,0.576-1.56
		c0.662,0.322,2.792,0.724,3.423,0.981c0,0-0.237,0.979-0.258,1.671c-0.017,0.597-0.122,1.271,0.446,1.846
		C83.781,37.519,84.479,37.706,85.286,37.732L85.286,37.732z"/>
</g>
</svg>
